<svg xmlns="http://www.w3.org/2000/svg" viewBox="0 0 915.68 341.89"><defs><style>.cls-1{fill:#1d1d1b;}.cls-2{fill:none;stroke:#f6ab81;stroke-miterlimit:10;stroke-width:2px;}</style></defs><title>chez-norbert-logo</title><g id="Calque_2" data-name="Calque 2"><g id="Calque_1-2" data-name="Calque 1"><path class="cls-1" d="M22,176.68A37.27,37.27,0,0,1,6,161.81q-6-10-6-25a75.34,75.34,0,0,1,9.53-36.55A78.52,78.52,0,0,1,35.4,72,63.4,63.4,0,0,1,71.13,61.11a59.49,59.49,0,0,1,19.72,3.21q9.2,3.2,12.81,8.62a64.12,64.12,0,0,0-2.88,10.76,78,78,0,0,0-1.39,12.24l-4.11.66c0-1.65-.08-3.67-.24-6.08s-.42-4.6-.74-6.57q-1.15-7.73-6.49-11.83T71.63,68A53.28,53.28,0,0,0,39.84,78.2a70.91,70.91,0,0,0-22.26,26.12,70.69,70.69,0,0,0-8,32.2q0,12.48,4.84,20.78a30.53,30.53,0,0,0,13,12.32,40.39,40.39,0,0,0,18.15,4q17.25,0,32.2-11.25t22.67-32.12q4.44,0,4.44,6.08,0,8.55-8.54,19.3A71.58,71.58,0,0,1,73.68,174,61.7,61.7,0,0,1,44,181.53,49.91,49.91,0,0,1,22,176.68Z"/><path class="cls-1" d="M233.6,7.8q8.22,7.81,8.22,21.93l-1.15,2q-3.61-11.17-11.34-16.51T210.77,9.86q-22.85,0-38.77,25.71t-27.6,74.17l-4.27,18.56L138,137.83a104.38,104.38,0,0,1,17.09-18.48q10.35-9,15.6-8.95c.88,0,2.16.82,3.86,2.46s2.55,2.85,2.55,3.61q-3.12,9-7.39,26.45t-4.27,22.18q0,4.6,1.48,6.65c1,1.37,3,2.06,6.07,2.06q8.22,0,15.94-6.25a71.22,71.22,0,0,0,13.39-14.21,101.74,101.74,0,0,0,8.62-14,3.45,3.45,0,0,1,1.81,1.15,4.66,4.66,0,0,1,.82,2.46v.5a10.71,10.71,0,0,1-1.31,4.6,76.34,76.34,0,0,1-19.39,23.24q-11.82,9.45-23,9.45a12.13,12.13,0,0,1-9.2-3.62q-3.45-3.61-3.45-10.18a75.86,75.86,0,0,1,2.06-15.77q2-9.37,5.5-22-.17.82,1.81-6.73a2.11,2.11,0,0,0-.82-1.15,2,2,0,0,0-1.15-.49q-1.65,0-7.73,5.42a118.67,118.67,0,0,0-12.32,13,69.78,69.78,0,0,0-9.36,14.13q-1.65,6.57-3.29,16.43c-.11.77-.22,1.59-.32,2.46a21.75,21.75,0,0,1-.5,2.63,25,25,0,0,1-.9,4,1.44,1.44,0,0,1-1.4,1.07,12,12,0,0,1-4.43-1c-1.65-.66-2.47-1.48-2.47-2.46a29.13,29.13,0,0,1,1-6.25l14.29-60.62q12-51.25,30.56-80.41T211.26,0Q225.39,0,233.6,7.8Z"/><path class="cls-1" d="M275.66,142.76q0,6.57-8.46,15.36a83.06,83.06,0,0,1-20,15.11q-11.51,6.33-19.22,6.33a21.57,21.57,0,0,1-12.82-3.86,29.32,29.32,0,0,1-8.29-8.63C205,163.9,204,161.54,204,160q2.63-9.37,5.75-26l1.81-9.2q.65-3.28,4.76-6.82a40.41,40.41,0,0,1,9.2-5.91c3.4-1.59,6.13-2.38,8.22-2.38a15.39,15.39,0,0,1,6,1.56,16.86,16.86,0,0,1,6.24,4.85,12.7,12.7,0,0,1,2.71,8.37,18.26,18.26,0,0,1-3.94,11.17q-3.95,5.26-11.66,8.55t-18.57,3.28l-2.29,11a13.34,13.34,0,0,0,1.72,4.93,17.42,17.42,0,0,0,5.59,6.24,16.25,16.25,0,0,0,9.77,2.79q7.89,0,16.59-5.17a72.45,72.45,0,0,0,15.94-12.9,64.5,64.5,0,0,0,10.84-14.95Q275.66,140,275.66,142.76Zm-48.3-24.64a24.54,24.54,0,0,0-5.67,4.1,10,10,0,0,0-3,4.6q-1.64,7.4-3,15,12.65-.5,19.05-5t6.41-10.26a9.66,9.66,0,0,0-3-7.07q-3-3-5.75-3A11.69,11.69,0,0,0,227.36,118.12Z"/><path class="cls-1" d="M427.78,190.89a14.4,14.4,0,0,1,1.64,7.07,19.51,19.51,0,0,1-4.85,12.73q-4.85,5.82-14,9.2a62,62,0,0,1-21.44,3.36,102.45,102.45,0,0,1-32.36-5.5,202.2,202.2,0,0,1-31.13-13.22q-14.54-7.72-36.06-20.54-8.55-5.25-12.81-7.72a12.9,12.9,0,0,0-6.25-2.13,7.4,7.4,0,0,0-4.35,1.31,33.36,33.36,0,0,0-5,4.76q-1.15,0-3.45-2.46c-1.54-1.64-2.3-2.79-2.3-3.45a325.66,325.66,0,0,0,25.71-22q10.92-10.51,22.42-24a49.58,49.58,0,0,1-8.05,2.47,39.07,39.07,0,0,1-8.38,1q-7.06,0-11.33-3.37a10.8,10.8,0,0,1-4.27-8.95,12.89,12.89,0,0,1,2.22-7.39,6.87,6.87,0,0,1,6-3.29,5.59,5.59,0,0,1,2.14.41,1.76,1.76,0,0,1,1.15,1.07,10.56,10.56,0,0,0-1.73,3.12,12.68,12.68,0,0,0-.74,4.44q0,7.23,9,7.23a27.49,27.49,0,0,0,13.14-3.54,44.91,44.91,0,0,0,12.16-9.77,6.15,6.15,0,0,1,4,1.15,3.84,3.84,0,0,1,1.4,3.12c0,1.43-.77,3.23-2.3,5.42q-5.91,8.55-20.37,24t-23,22.34a455.37,455.37,0,0,0,62.51,34.74Q367.31,216,387.53,216q27.44,0,36.14-28.1Q426.13,187.93,427.78,190.89Z"/><path class="cls-1" d="M515,48.71a16.45,16.45,0,0,1,4.93,3.86q-13.65,0-21.93,13.06t-13.23,34.5q-4.92,21.44-12,63.49l-2.63,15.44a23.94,23.94,0,0,1-7.23,1l-7.55-16.76q-14.62-32.35-22.43-49T416.77,81.48L412.5,97.75q-7.39,27.6-11,45.75a192.62,192.62,0,0,0-3.61,37.7h-.82q-4.44,0-6.57-2.14t-2.14-8.21a86.82,86.82,0,0,1,2.55-18.32q2.53-11.25,8-31.29,4.61-17.42,6.82-26.94a70.43,70.43,0,0,0,2.22-15c0-2.08-.44-3.54-1.32-4.36s-2.62-1.23-5.25-1.23q-1.49,0-6.08.33l-5.75.16a6.48,6.48,0,0,1-3.37-.74c-.82-.49-1.23-1.56-1.23-3.2a16.62,16.62,0,0,1,.82-4.43q4.44,1.64,13,1.64a49.71,49.71,0,0,0,9.12-.66,63.6,63.6,0,0,0,7.8-2.13c1.09,0,2.08.87,3,2.62q11,22,37.95,79l8.54,18.07q8-54.21,18-86.08t24.23-31.87A15.07,15.07,0,0,1,515,48.71Z"/><path class="cls-1" d="M600.6,124a14.14,14.14,0,0,1-3.29,8.46,24.54,24.54,0,0,1-8.95,7.15,27.72,27.72,0,0,1-12.4,2.79A26.69,26.69,0,0,1,560,137.5q-1,4.77-2.46,9.69c-.33,1.21-1,4-2.14,8.3a99.73,99.73,0,0,0-2.3,11.58,17.4,17.4,0,0,1-4.6,5.67,32.18,32.18,0,0,1-8.21,5.17,22.71,22.71,0,0,1-9.37,2.14,20.15,20.15,0,0,1-9.85-2.63,22.55,22.55,0,0,1-7.81-7.06,17,17,0,0,1-3-9.86q2.31-6.9,3.78-13t2.8-12.32l1.64-8.21a15.63,15.63,0,0,1,4.43-7.48,29.36,29.36,0,0,1,8.79-6.08,24.87,24.87,0,0,1,10.43-2.38,33.44,33.44,0,0,1,5.59.66q.49-3.78,1.72-5.26a5,5,0,0,1,4-1.48,17.11,17.11,0,0,1,3.78.5,45.52,45.52,0,0,0-.82,7.88,23.54,23.54,0,0,0,5.75,16.1q5.75,6.57,15.6,6.57a20.82,20.82,0,0,0,12.73-3.94A26.49,26.49,0,0,0,599,120.75C600.05,121.07,600.6,122.17,600.6,124Zm-50.93,25.3a131.61,131.61,0,0,0,4.27-17.74A26.09,26.09,0,0,1,549,120.42a2.09,2.09,0,0,0-.24-1.07,1.56,1.56,0,0,0-1.07-.58,15.1,15.1,0,0,0-5.59-1,17.17,17.17,0,0,0-10.51,3.28A14,14,0,0,0,526,129q-.48,2-3.61,15.44-1.47,7.89-3.61,15.61,0,6.08,4.1,9.44a13.51,13.51,0,0,0,8.71,3.37,16.27,16.27,0,0,0,8.46-2.79q4.52-2.79,5.83-5.75Q547.21,157.71,549.67,149.33Z"/><path class="cls-1" d="M662.86,121.07a3.53,3.53,0,0,1,.49,1.81q0,3.45-3.2,6.65a23.54,23.54,0,0,1-8.38,5.18,29.22,29.22,0,0,1-10.44,2,23.1,23.1,0,0,1-14-4.27,19.23,19.23,0,0,1-7.48-12q-7.38.83-13.55,9.36a53.38,53.38,0,0,0-8.62,18.56q-.33,1.65-2.47,10.11t-4.1,20a2,2,0,0,1-.41.74,1.66,1.66,0,0,1-1.07.24,10,10,0,0,1-3.45-1c-1.54-.66-2.3-1.37-2.3-2.14a30,30,0,0,1,.82-6.08q10-46.32,13-57.33a5,5,0,0,1,.74-2,1.71,1.71,0,0,1,1.39-.49,8.77,8.77,0,0,1,2.8,1.06,17.17,17.17,0,0,1,3.45,2.22l-3,9.53-1,3.29a34.83,34.83,0,0,1,8.71-9.53,17.47,17.47,0,0,1,10.51-3.62,16.69,16.69,0,0,1,3.29.33,6,6,0,0,1,2.3.82q0,8.06,4.19,11.91t11.74,3.86A24,24,0,0,0,654,128a19.86,19.86,0,0,0,7.73-7.88A2,2,0,0,1,662.86,121.07Z"/><path class="cls-1" d="M699.57,32.69q-16,18.9-25.71,58.32-3,11.83-8,35.4t-6.65,35.24a10.68,10.68,0,0,0,3.45,7.72q3.45,3.45,7.23,3.45,3.95,0,8.3-4.19a33.13,33.13,0,0,0,7.31-11.33,40.26,40.26,0,0,0,3-15.53,48.68,48.68,0,0,0-1.8-13.06,38.69,38.69,0,0,0-4.11-10.1q0-1.64,2.46-4.19c1.65-1.7,3-2.65,4.11-2.87A99.77,99.77,0,0,0,696,122a22.42,22.42,0,0,0,8.13,6.24q5.25,2.55,13.47,2.55a35.64,35.64,0,0,0,13.06-2.22,30.42,30.42,0,0,0,10.43-7,2.67,2.67,0,0,1,.82,2q0,3.28-3.86,6.49a30.57,30.57,0,0,1-10.18,5.25,41.54,41.54,0,0,1-12.9,2.06,34,34,0,0,1-11.42-1.89,27.9,27.9,0,0,1-9.11-5.18,39,39,0,0,1,1.48,10.85,52.77,52.77,0,0,1-3.78,20.53q-3.78,9-9.86,14a20.07,20.07,0,0,1-13,5,16.94,16.94,0,0,1-9.69-2.88,20.08,20.08,0,0,1-6.65-7.31,18.31,18.31,0,0,1-2.38-8.71q1.63-9.52,6.07-31.45T666.14,89q10-38.78,25-62.26T730.7,3.29q9.85,0,16,3.69t7.64,9.12v1.48A46.48,46.48,0,0,0,736,13.8Q715.59,13.8,699.57,32.69Z"/><path class="cls-1" d="M800.52,142.76q0,6.57-8.46,15.36a82.86,82.86,0,0,1-20,15.11q-11.51,6.33-19.22,6.33a21.51,21.51,0,0,1-12.81-3.86,29.24,29.24,0,0,1-8.3-8.63c-1.92-3.17-2.88-5.53-2.88-7.06q2.64-9.37,5.75-26l1.81-9.2q.66-3.28,4.77-6.82a40,40,0,0,1,9.2-5.91q5.08-2.39,8.21-2.38a15.47,15.47,0,0,1,6,1.56,17,17,0,0,1,6.24,4.85,12.75,12.75,0,0,1,2.71,8.37,18.32,18.32,0,0,1-3.94,11.17Q765.7,141,758,144.24t-18.56,3.28l-2.3,11a13.34,13.34,0,0,0,1.72,4.93,17.42,17.42,0,0,0,5.59,6.24,16.25,16.25,0,0,0,9.77,2.79q7.89,0,16.6-5.17a72.63,72.63,0,0,0,15.93-12.9,64.5,64.5,0,0,0,10.84-14.95Q800.52,140,800.52,142.76Zm-48.3-24.64a24.54,24.54,0,0,0-5.67,4.1,10,10,0,0,0-3,4.6q-1.65,7.4-3,15,12.65-.5,19.06-5T766,126.5a9.62,9.62,0,0,0-3-7.07c-2-2-3.88-3-5.75-3A11.69,11.69,0,0,0,752.22,118.12Z"/><path class="cls-1" d="M866.07,121.07a3.53,3.53,0,0,1,.49,1.81q0,3.45-3.2,6.65a23.54,23.54,0,0,1-8.38,5.18,29.22,29.22,0,0,1-10.44,2,23.1,23.1,0,0,1-14-4.27,19.23,19.23,0,0,1-7.48-12q-7.38.83-13.55,9.36a53.38,53.38,0,0,0-8.62,18.56q-.33,1.65-2.47,10.11t-4.1,20a2,2,0,0,1-.41.74,1.66,1.66,0,0,1-1.07.24,10,10,0,0,1-3.45-1c-1.54-.66-2.3-1.37-2.3-2.14a30,30,0,0,1,.82-6.08q10-46.32,13-57.33a5,5,0,0,1,.74-2,1.71,1.71,0,0,1,1.39-.49,8.77,8.77,0,0,1,2.8,1.06,17.17,17.17,0,0,1,3.45,2.22l-3,9.53-1,3.29A34.83,34.83,0,0,1,814,117a17.47,17.47,0,0,1,10.51-3.62,16.69,16.69,0,0,1,3.29.33,6,6,0,0,1,2.3.82q0,8.06,4.19,11.91T846,130.27a24,24,0,0,0,11.17-2.3,19.86,19.86,0,0,0,7.73-7.88A2,2,0,0,1,866.07,121.07Z"/><path class="cls-1" d="M915.68,154.26a5.06,5.06,0,0,1-.5,2.3,15,15,0,0,1-1.64,2.46,54.34,54.34,0,0,1-11.91,10.11,80,80,0,0,1-16,8.13A42.84,42.84,0,0,1,871,180.38,16.53,16.53,0,0,1,859.25,176q-4.68-4.35-4.68-13.06,0-11,7.88-41.39l-17.41.65a7,7,0,0,1-.91-.57,2.32,2.32,0,0,1-.74-.74c.33-.55.93-1.64,1.81-3.29a15.51,15.51,0,0,1,2.3-3.45l16.92.17q5.43-20,12.49-41.24a73.59,73.59,0,0,1,7.55-5c3.07-1.8,4.93-2.71,5.59-2.71a3,3,0,0,1,1.81,1.81,11.39,11.39,0,0,0-4.6,3A21.12,21.12,0,0,0,884,76.39q-4.77,12.17-11.5,38l41.89.16.17,2.63a2.54,2.54,0,0,1-.5,1.81,4,4,0,0,1-2.3.65q-2.29.18-41.06,1.65-7.56,30.89-7.56,41.23,0,5.76,2.79,8.46t8.54,2.71q16.75,0,40.42-22.18A4.75,4.75,0,0,1,915.68,154.26Z"/><path class="cls-1" d="M106,275.5a9,9,0,0,1-3.41-3.34,9.78,9.78,0,0,1,0-9.57,9,9,0,0,1,3.41-3.34,9.92,9.92,0,0,1,4.88-1.21,10.2,10.2,0,0,1,3.68.65,7.52,7.52,0,0,1,2.86,1.9l-.84.87a7.71,7.71,0,0,0-5.65-2.18,8.5,8.5,0,0,0-4.2,1.05,7.56,7.56,0,0,0-3,2.91,8.48,8.48,0,0,0,0,8.28,7.6,7.6,0,0,0,3,2.9,8.5,8.5,0,0,0,4.2,1.05,7.67,7.67,0,0,0,5.65-2.21l.84.87a7.64,7.64,0,0,1-2.87,1.92,10.05,10.05,0,0,1-3.67.66A9.92,9.92,0,0,1,106,275.5Z"/><path class="cls-1" d="M150,258.18v18.4h-1.34v-8.76h-12.3v8.76H135v-18.4h1.34v8.46h12.3v-8.46Z"/><path class="cls-1" d="M181,271.4H170.28l-2.34,5.18h-1.45l8.47-18.4h1.34l8.46,18.4h-1.44Zm-.5-1.13-4.84-10.62-4.81,10.62Z"/><path class="cls-1" d="M218.64,276.58l0-15.75-7.71,13.3h-.65l-7.71-13.25v15.7h-1.31v-18.4h1.13l8.23,14.22,8.23-14.22h1.1l0,18.4Z"/><path class="cls-1" d="M253.46,268.64a4.49,4.49,0,0,1,1,3.07,4.22,4.22,0,0,1-1.7,3.6,8.51,8.51,0,0,1-5.08,1.27h-8.2v-18.4h7.68a7.73,7.73,0,0,1,4.66,1.22,4.05,4.05,0,0,1,1.67,3.48,4.2,4.2,0,0,1-.83,2.66,4.66,4.66,0,0,1-2.24,1.55A5.1,5.1,0,0,1,253.46,268.64Zm-12.61-9.31v7.34h6.28a6.23,6.23,0,0,0,3.72-.94,3.52,3.52,0,0,0,0-5.46,6.23,6.23,0,0,0-3.72-.94Zm10.92,15.16a3.25,3.25,0,0,0,1.38-2.88,3.21,3.21,0,0,0-1.38-2.87,7.37,7.37,0,0,0-4.06-.92h-6.86v7.6h6.86A7.28,7.28,0,0,0,251.77,274.49Z"/><path class="cls-1" d="M285.19,276.58l-4.39-6.16a13,13,0,0,1-1.78.14h-5.26v6h-1.34v-18.4H279a8.24,8.24,0,0,1,5.44,1.64,5.61,5.61,0,0,1,2,4.56,5.62,5.62,0,0,1-4.31,5.76l4.6,6.44ZM279,269.37a6.79,6.79,0,0,0,4.49-1.3,5.17,5.17,0,0,0,0-7.38,6.79,6.79,0,0,0-4.49-1.31h-5.26v10Z"/><path class="cls-1" d="M317.18,275.37v1.21H304.49v-18.4h12.3v1.2h-11v7.26h9.8v1.18h-9.8v7.55Z"/><path class="cls-1" d="M336.2,276a7.28,7.28,0,0,1-2.85-1.8l.6-1a7.17,7.17,0,0,0,2.62,1.67,9.31,9.31,0,0,0,3.45.64,6.64,6.64,0,0,0,4-1,3.1,3.1,0,0,0,1.34-2.61,2.69,2.69,0,0,0-.71-2,4.65,4.65,0,0,0-1.76-1.13A24.9,24.9,0,0,0,340,268a27.49,27.49,0,0,1-3.24-1,5.16,5.16,0,0,1-2.08-1.45,3.91,3.91,0,0,1-.85-2.65,4.41,4.41,0,0,1,.71-2.45,4.78,4.78,0,0,1,2.16-1.78,8.87,8.87,0,0,1,3.64-.66,10.19,10.19,0,0,1,3,.45,8.86,8.86,0,0,1,2.55,1.21l-.5,1.08a8.51,8.51,0,0,0-2.43-1.16,9.3,9.3,0,0,0-2.62-.39,6.21,6.21,0,0,0-3.86,1,3.21,3.21,0,0,0-1.31,2.66,2.69,2.69,0,0,0,.71,2,4.65,4.65,0,0,0,1.76,1.13,27.69,27.69,0,0,0,2.86.84,26.91,26.91,0,0,1,3.23,1,5.46,5.46,0,0,1,2.07,1.43,3.76,3.76,0,0,1,.85,2.59,4.39,4.39,0,0,1-.72,2.45,5,5,0,0,1-2.22,1.76,9.14,9.14,0,0,1-3.68.66A10.82,10.82,0,0,1,336.2,276Z"/><path class="cls-1" d="M384.26,258.18h7.28a10.65,10.65,0,0,1,5.09,1.18,8.63,8.63,0,0,1,3.45,3.27,9.7,9.7,0,0,1,0,9.49,8.63,8.63,0,0,1-3.45,3.27,10.65,10.65,0,0,1-5.09,1.19h-7.28Zm7.18,17.19a9.56,9.56,0,0,0,4.49-1,7.17,7.17,0,0,0,3-2.82,8.75,8.75,0,0,0,0-8.31,7.17,7.17,0,0,0-3-2.82,9.56,9.56,0,0,0-4.49-1H385.6v16Z"/><path class="cls-1" d="M418.93,257.3a1,1,0,0,1,.31.77,2.64,2.64,0,0,1-.06.55c-.05.2-.1.42-.17.66l-1,3.57H417l.86-3.7a1.26,1.26,0,0,1-.63-.38,1.09,1.09,0,0,1-.23-.7,1.06,1.06,0,0,1,1.1-1.1A1,1,0,0,1,418.93,257.3Z"/><path class="cls-1" d="M452.1,258.18v18.4h-1.34v-8.76h-12.3v8.76h-1.34v-18.4h1.34v8.46h12.3v-8.46Z"/><path class="cls-1" d="M474.57,275.48a9,9,0,0,1-3.43-3.35,9.67,9.67,0,0,1,0-9.51,9,9,0,0,1,3.43-3.35,9.81,9.81,0,0,1,4.89-1.23,10,10,0,0,1,4.89,1.21,9,9,0,0,1,3.43,3.34,9.78,9.78,0,0,1,0,9.57,9,9,0,0,1-3.43,3.34,10,10,0,0,1-4.89,1.21A9.81,9.81,0,0,1,474.57,275.48Zm9.07-1.06a7.72,7.72,0,0,0,2.94-2.9,8.47,8.47,0,0,0,0-8.28,7.68,7.68,0,0,0-2.94-2.91,8.87,8.87,0,0,0-8.37,0,7.73,7.73,0,0,0-3,2.91,8.48,8.48,0,0,0,0,8.28,7.78,7.78,0,0,0,3,2.9,8.87,8.87,0,0,0,8.37,0Zm-1.44-17.74-2.74-2.29-2.73,2.29h-1.32l3.32-3.1h1.47l3.31,3.1Z"/><path class="cls-1" d="M510.08,259.38h-6.62v-1.2h14.59v1.2h-6.63v17.2h-1.34Z"/><path class="cls-1" d="M547.2,275.37v1.21H534.5v-18.4h12.3v1.2h-11v7.26h9.81v1.18h-9.81v7.55Z"/><path class="cls-1" d="M566.21,276a7.35,7.35,0,0,1-2.85-1.8l.61-1a7.12,7.12,0,0,0,2.61,1.67,9.4,9.4,0,0,0,3.46.64,6.66,6.66,0,0,0,4-1,3.13,3.13,0,0,0,1.34-2.61,2.73,2.73,0,0,0-.71-2,4.72,4.72,0,0,0-1.76-1.13A25.52,25.52,0,0,0,570,268a28.35,28.35,0,0,1-3.25-1,5.23,5.23,0,0,1-2.08-1.45,4,4,0,0,1-.85-2.65,4.49,4.49,0,0,1,.71-2.45,4.81,4.81,0,0,1,2.17-1.78,8.81,8.81,0,0,1,3.64-.66,10.24,10.24,0,0,1,3,.45,8.67,8.67,0,0,1,2.54,1.21l-.49,1.08a8.44,8.44,0,0,0-2.44-1.16,9.18,9.18,0,0,0-2.61-.39,6.19,6.19,0,0,0-3.86,1,3.22,3.22,0,0,0-1.32,2.66,2.73,2.73,0,0,0,.71,2,4.65,4.65,0,0,0,1.76,1.13,28,28,0,0,0,2.87.84,27.49,27.49,0,0,1,3.23,1,5.43,5.43,0,0,1,2.06,1.43,3.77,3.77,0,0,1,.86,2.59,4.32,4.32,0,0,1-.73,2.45,5,5,0,0,1-2.22,1.76,9.11,9.11,0,0,1-3.68.66A10.82,10.82,0,0,1,566.21,276Z"/><path class="cls-1" d="M627.21,276.84l-2.66-2.79a7.35,7.35,0,0,1-2.68,2,8.69,8.69,0,0,1-3.44.67,8,8,0,0,1-3.1-.58,4.87,4.87,0,0,1-2.13-1.63,4,4,0,0,1-.77-2.39,4.52,4.52,0,0,1,1.08-2.93,13.82,13.82,0,0,1,3.68-2.86l0-.05a10.77,10.77,0,0,1-1.87-2.38,4.42,4.42,0,0,1-.5-2.06A3.42,3.42,0,0,1,616,259.1a4.66,4.66,0,0,1,3.18-1,4.41,4.41,0,0,1,3,.93,3.21,3.21,0,0,1,1.09,2.57,3.66,3.66,0,0,1-.93,2.45,13.09,13.09,0,0,1-3.28,2.46l5.45,5.76a12.5,12.5,0,0,0,1.31-3.73l1.08.34a12.84,12.84,0,0,1-1.58,4.23L628,276Zm-3.45-3.63L618,267.09a13.29,13.29,0,0,0-3.32,2.49,3.65,3.65,0,0,0-.91,2.42,3.09,3.09,0,0,0,1.33,2.6,5.52,5.52,0,0,0,3.43,1A6.38,6.38,0,0,0,623.76,273.21Zm-7.28-9.71a13.19,13.19,0,0,0,1.76,2.19,13.3,13.3,0,0,0,3-2.14,2.83,2.83,0,0,0,.81-2,2.28,2.28,0,0,0-.76-1.82,3.11,3.11,0,0,0-2.13-.67,3.36,3.36,0,0,0-2.3.74,2.57,2.57,0,0,0-.82,2A3.37,3.37,0,0,0,616.48,263.5Z"/><path class="cls-1" d="M677.67,267.45H679v6.89A8,8,0,0,1,676,276.1a10.74,10.74,0,0,1-3.64.61,10.11,10.11,0,0,1-4.93-1.21,8.91,8.91,0,0,1-3.44-3.34,9.78,9.78,0,0,1,0-9.57,8.91,8.91,0,0,1,3.44-3.34,10.17,10.17,0,0,1,5-1.21,10.36,10.36,0,0,1,3.71.65,8,8,0,0,1,2.91,1.88l-.84.89a7,7,0,0,0-2.59-1.67,9.41,9.41,0,0,0-3.17-.51,8.69,8.69,0,0,0-4.27,1.05,7.65,7.65,0,0,0-3,2.91,8,8,0,0,0-1.08,4.14,7.95,7.95,0,0,0,4.07,7,8.55,8.55,0,0,0,4.26,1.06,8,8,0,0,0,5.23-1.68Z"/><path class="cls-1" d="M701.41,256.68l-2.74-2.29-2.73,2.29h-1.31l3.31-3.1h1.47l3.31,3.1Zm-3.42,1.5h1.34v18.4H698Z"/><path class="cls-1" d="M722.41,259.38h-6.62v-1.2h14.58v1.2h-6.62v17.2h-1.34Z"/><path class="cls-1" d="M759.52,275.37v1.21H746.83v-18.4h12.3v1.2h-11v7.26H758v1.18h-9.8v7.55Z"/><path class="cls-1" d="M778.54,276a7.28,7.28,0,0,1-2.85-1.8l.6-1a7.17,7.17,0,0,0,2.62,1.67,9.31,9.31,0,0,0,3.45.64,6.64,6.64,0,0,0,4-1,3.1,3.1,0,0,0,1.34-2.61,2.69,2.69,0,0,0-.71-2,4.65,4.65,0,0,0-1.76-1.13,24.9,24.9,0,0,0-2.84-.81,27.49,27.49,0,0,1-3.24-1,5.16,5.16,0,0,1-2.08-1.45,3.91,3.91,0,0,1-.85-2.65,4.41,4.41,0,0,1,.71-2.45,4.78,4.78,0,0,1,2.16-1.78,8.87,8.87,0,0,1,3.64-.66,10.19,10.19,0,0,1,3,.45,8.86,8.86,0,0,1,2.55,1.21l-.5,1.08a8.51,8.51,0,0,0-2.43-1.16,9.3,9.3,0,0,0-2.62-.39,6.21,6.21,0,0,0-3.86,1,3.21,3.21,0,0,0-1.31,2.66,2.69,2.69,0,0,0,.71,2A4.65,4.65,0,0,0,780,266a27.69,27.69,0,0,0,2.86.84,26.91,26.91,0,0,1,3.23,1,5.46,5.46,0,0,1,2.07,1.43,3.76,3.76,0,0,1,.85,2.59,4.39,4.39,0,0,1-.72,2.45,5,5,0,0,1-2.22,1.76,9.14,9.14,0,0,1-3.68.66A10.82,10.82,0,0,1,778.54,276Z"/><path class="cls-2" d="M349.6,332.13c77.35,30.16,135.47-29.71,204.15,0"/></g></g></svg>